# xmcd
#
# Track frame offsets: 
#        150
#        21375
#        41624
#        67646
#        84088
#        103957
#
# Disc length: 1622 seconds
#
# Revision: 0
# Processed by: cddbd v1.5.2PL0 Copyright (c) Steve Scherf et al.
# Submitted via: ExactAudioCopy v0.99pb4
#
DISCID=40065406
DTITLE=Revengine - Plan Your Escape
DYEAR=2009
DGENRE=Hard Rock
TTITLE0=Given It All
TTITLE1=Treason
TTITLE2=Live in a Moment
TTITLE3=Fear Me
TTITLE4=Die for You
TTITLE5=Turn to Stone
EXTD=
EXTT0=
EXTT1=
EXTT2=
EXTT3=
EXTT4=
EXTT5=
PLAYORDER=
